<svg width="150" height="150" viewBox="0 0 150 150" fill="none" xmlns="http://www.w3.org/2000/svg">
<g clip-path="url(#clip0_5_59)">
<path d="M75 146L75 4" stroke="#8E8E93" stroke-width="5" stroke-linecap="round"/>
<g filter="url(#filter0_i_5_59)">
<path d="M75.9416 71.6516L81.9382 60.4869C87.5727 49.9965 96.7661 41.8614 107.864 37.5455L117.668 33.7328M75.9416 71.6516V71.6516C79.2606 69.9118 82.0894 67.3659 84.168 64.2479L88 58.5L99.5 48.5L116 40.5L117.668 33.7328M75.9416 71.6516L85.2875 55.5172C92.1552 43.661 104.098 35.6263 117.668 33.7328V33.7328" stroke="#8E8E93" stroke-width="2" stroke-linecap="round"/>
</g>
<g filter="url(#filter1_i_5_59)">
<path d="M117.652 33.8063C117.661 33.7657 117.689 33.7615 117.72 33.7386" stroke="#8E8E93" stroke-width="2" stroke-linecap="round"/>
</g>
<g filter="url(#filter2_i_5_59)">
<path d="M74.6645 70.1L77.076 62.7433C80.855 51.2147 88.563 41.4562 98.7892 35.2538L103.726 32.2593M74.6645 70.1V70.1C77.1561 68.1705 79.1299 65.627 80.4014 62.7073L82.7525 57.3087L90.8258 47.2609L103.308 38.2149L103.726 32.2593M74.6645 70.1L80.0936 55.1556C84.0771 44.1907 92.8089 35.7309 103.726 32.2593V32.2593" stroke="#8E8E93" stroke-width="2" stroke-linecap="round"/>
</g>
<g filter="url(#filter3_i_5_59)">
<path d="M103.723 32.3238C103.725 32.2882 103.748 32.2807 103.769 32.2571" stroke="#8E8E93" stroke-width="2" stroke-linecap="round"/>
</g>
<g filter="url(#filter4_i_5_59)">
<path d="M76.5092 75.9842L85.239 62.8505C91.7549 53.0476 101.598 45.8758 113.015 42.612L126.066 38.8815M76.5092 75.9842L82.9747 76.3551C84.5517 76.4456 86.0633 75.7489 87 74.5V74.5L95.3312 65L103.5 59.5L121.5 52.5L126.066 38.8815M76.5092 75.9842L88.3319 59.3895C97.0277 47.1837 110.93 39.6278 126.066 38.8815V38.8815" stroke="#8E8E93" stroke-width="2" stroke-linecap="round"/>
</g>
<g filter="url(#filter5_i_5_59)">
<path d="M126.041 38.9596C126.054 38.9165 126.086 38.9146 126.122 38.8927" stroke="#8E8E93" stroke-width="2" stroke-linecap="round"/>
</g>
<g filter="url(#filter6_i_5_59)">
<path d="M76.2843 87.7754L87.8843 72.5382C94.2663 64.1549 103.844 58.153 115.073 55.4992L133.283 51.196M76.2843 87.7754V87.7754C99.9341 90.5478 121.568 79.3779 129.498 60.3008L133.283 51.196M76.2843 87.7754V87.7754C100.648 91.2406 123.093 79.4633 130.317 59.4237L133.283 51.196M76.2843 87.7754L91.8809 68.6973C100.523 58.1264 114.26 51.7824 129.528 51.3117L133.283 51.196" stroke="#8E8E93" stroke-width="2" stroke-linecap="round"/>
</g>
<g filter="url(#filter7_i_5_59)">
<path d="M133.254 51.2741C133.27 51.231 133.306 51.2295 133.347 51.208" stroke="#8E8E93" stroke-width="2" stroke-linecap="round"/>
</g>
<g filter="url(#filter8_i_5_59)">
<path d="M74.0584 71.6516L68.0618 60.4869C62.4273 49.9965 53.2339 41.8614 42.1358 37.5455L32.3316 33.7328M74.0584 71.6516V71.6516C70.7394 69.9118 67.9106 67.3659 65.832 64.2479L62 58.5L50.5 48.5L34 40.5L32.3316 33.7328M74.0584 71.6516L64.7125 55.5172C57.8448 43.661 45.9017 35.6263 32.3316 33.7328V33.7328" stroke="#8E8E93" stroke-width="2" stroke-linecap="round"/>
</g>
<g filter="url(#filter9_i_5_59)">
<path d="M32.3482 33.8063C32.3392 33.7657 32.311 33.7615 32.2804 33.7386" stroke="#8E8E93" stroke-width="2" stroke-linecap="round"/>
</g>
<g filter="url(#filter10_i_5_59)">
<path d="M75.3355 70.1L72.924 62.7433C69.145 51.2147 61.437 41.4562 51.2108 35.2538L46.2735 32.2593M75.3355 70.1V70.1C72.844 68.1705 70.8701 65.627 69.5986 62.7073L67.2475 57.3087L59.1742 47.2609L46.6923 38.2149L46.2735 32.2593M75.3355 70.1L69.9064 55.1556C65.9229 44.1907 57.1911 35.7309 46.2735 32.2593V32.2593" stroke="#8E8E93" stroke-width="2" stroke-linecap="round"/>
</g>
<g filter="url(#filter11_i_5_59)">
<path d="M46.2768 32.3238C46.2751 32.2882 46.2525 32.2807 46.2305 32.2571" stroke="#8E8E93" stroke-width="2" stroke-linecap="round"/>
</g>
<g filter="url(#filter12_i_5_59)">
<path d="M73.4908 75.9842L64.761 62.8505C58.2451 53.0476 48.4022 45.8758 36.9848 42.612L23.9342 38.8815M73.4908 75.9842L67.0253 76.3551C65.4483 76.4456 63.9367 75.7489 63 74.5V74.5L54.6688 65L46.5 59.5L28.5 52.5L23.9342 38.8815M73.4908 75.9842L61.6681 59.3895C52.9723 47.1837 39.0698 39.6278 23.9342 38.8815V38.8815" stroke="#8E8E93" stroke-width="2" stroke-linecap="round"/>
</g>
<g filter="url(#filter13_i_5_59)">
<path d="M23.9595 38.9596C23.9457 38.9165 23.9143 38.9146 23.8785 38.8927" stroke="#8E8E93" stroke-width="2" stroke-linecap="round"/>
</g>
<g filter="url(#filter14_i_5_59)">
<path d="M73.7157 87.7754L62.1157 72.5382C55.7337 64.1549 46.1564 58.153 34.9268 55.4992L16.7175 51.196M73.7157 87.7754V87.7754C50.0659 90.5478 28.4316 79.3779 20.502 60.3008L16.7175 51.196M73.7157 87.7754V87.7754C49.3521 91.2406 26.907 79.4633 19.6833 59.4237L16.7175 51.196M73.7157 87.7754L58.1191 68.6973C49.4773 58.1264 35.7398 51.7824 20.4719 51.3117L16.7175 51.196" stroke="#8E8E93" stroke-width="2" stroke-linecap="round"/>
</g>
<g filter="url(#filter15_i_5_59)">
<path d="M16.7457 51.2741C16.7303 51.231 16.6939 51.2295 16.6526 51.208" stroke="#8E8E93" stroke-width="2" stroke-linecap="round"/>
</g>
</g>
<defs>
<filter id="filter0_i_5_59" x="75.0606" y="32.7424" width="43.5788" height="43.7949" filterUnits="userSpaceOnUse" color-interpolation-filters="sRGB">
<feFlood flood-opacity="0" result="BackgroundImageFix"/>
<feBlend mode="normal" in="SourceGraphic" in2="BackgroundImageFix" result="shape"/>
<feColorMatrix in="SourceAlpha" type="matrix" values="0 0 0 0 0 0 0 0 0 0 0 0 0 0 0 0 0 0 127 0" result="hardAlpha"/>
<feOffset dy="4"/>
<feGaussianBlur stdDeviation="2"/>
<feComposite in2="hardAlpha" operator="arithmetic" k2="-1" k3="1"/>
<feColorMatrix type="matrix" values="0 0 0 0 0 0 0 0 0 0 0 0 0 0 0 0 0 0 0.25 0"/>
<feBlend mode="normal" in2="shape" result="effect1_innerShadow_5_59"/>
</filter>
<filter id="filter1_i_5_59" x="116.652" y="32.7385" width="2.068" height="6.06799" filterUnits="userSpaceOnUse" color-interpolation-filters="sRGB">
<feFlood flood-opacity="0" result="BackgroundImageFix"/>
<feBlend mode="normal" in="SourceGraphic" in2="BackgroundImageFix" result="shape"/>
<feColorMatrix in="SourceAlpha" type="matrix" values="0 0 0 0 0 0 0 0 0 0 0 0 0 0 0 0 0 0 127 0" result="hardAlpha"/>
<feOffset dy="4"/>
<feGaussianBlur stdDeviation="2"/>
<feComposite in2="hardAlpha" operator="arithmetic" k2="-1" k3="1"/>
<feColorMatrix type="matrix" values="0 0 0 0 0 0 0 0 0 0 0 0 0 0 0 0 0 0 0.25 0"/>
<feBlend mode="normal" in2="shape" result="effect1_innerShadow_5_59"/>
</filter>
<filter id="filter2_i_5_59" x="73.7273" y="31.2935" width="30.9851" height="43.6124" filterUnits="userSpaceOnUse" color-interpolation-filters="sRGB">
<feFlood flood-opacity="0" result="BackgroundImageFix"/>
<feBlend mode="normal" in="SourceGraphic" in2="BackgroundImageFix" result="shape"/>
<feColorMatrix in="SourceAlpha" type="matrix" values="0 0 0 0 0 0 0 0 0 0 0 0 0 0 0 0 0 0 127 0" result="hardAlpha"/>
<feOffset dy="4"/>
<feGaussianBlur stdDeviation="2"/>
<feComposite in2="hardAlpha" operator="arithmetic" k2="-1" k3="1"/>
<feColorMatrix type="matrix" values="0 0 0 0 0 0 0 0 0 0 0 0 0 0 0 0 0 0 0.25 0"/>
<feBlend mode="normal" in2="shape" result="effect1_innerShadow_5_59"/>
</filter>
<filter id="filter3_i_5_59" x="102.723" y="31.2571" width="2.04633" height="6.06668" filterUnits="userSpaceOnUse" color-interpolation-filters="sRGB">
<feFlood flood-opacity="0" result="BackgroundImageFix"/>
<feBlend mode="normal" in="SourceGraphic" in2="BackgroundImageFix" result="shape"/>
<feColorMatrix in="SourceAlpha" type="matrix" values="0 0 0 0 0 0 0 0 0 0 0 0 0 0 0 0 0 0 127 0" result="hardAlpha"/>
<feOffset dy="4"/>
<feGaussianBlur stdDeviation="2"/>
<feComposite in2="hardAlpha" operator="arithmetic" k2="-1" k3="1"/>
<feColorMatrix type="matrix" values="0 0 0 0 0 0 0 0 0 0 0 0 0 0 0 0 0 0 0.25 0"/>
<feBlend mode="normal" in2="shape" result="effect1_innerShadow_5_59"/>
</filter>
<filter id="filter4_i_5_59" x="74.7084" y="37.8886" width="52.3124" height="43.4685" filterUnits="userSpaceOnUse" color-interpolation-filters="sRGB">
<feFlood flood-opacity="0" result="BackgroundImageFix"/>
<feBlend mode="normal" in="SourceGraphic" in2="BackgroundImageFix" result="shape"/>
<feColorMatrix in="SourceAlpha" type="matrix" values="0 0 0 0 0 0 0 0 0 0 0 0 0 0 0 0 0 0 127 0" result="hardAlpha"/>
<feOffset dy="4"/>
<feGaussianBlur stdDeviation="2"/>
<feComposite in2="hardAlpha" operator="arithmetic" k2="-1" k3="1"/>
<feColorMatrix type="matrix" values="0 0 0 0 0 0 0 0 0 0 0 0 0 0 0 0 0 0 0.25 0"/>
<feBlend mode="normal" in2="shape" result="effect1_innerShadow_5_59"/>
</filter>
<filter id="filter5_i_5_59" x="125.04" y="37.8925" width="2.08144" height="6.06735" filterUnits="userSpaceOnUse" color-interpolation-filters="sRGB">
<feFlood flood-opacity="0" result="BackgroundImageFix"/>
<feBlend mode="normal" in="SourceGraphic" in2="BackgroundImageFix" result="shape"/>
<feColorMatrix in="SourceAlpha" type="matrix" values="0 0 0 0 0 0 0 0 0 0 0 0 0 0 0 0 0 0 127 0" result="hardAlpha"/>
<feOffset dy="4"/>
<feGaussianBlur stdDeviation="2"/>
<feComposite in2="hardAlpha" operator="arithmetic" k2="-1" k3="1"/>
<feColorMatrix type="matrix" values="0 0 0 0 0 0 0 0 0 0 0 0 0 0 0 0 0 0 0.25 0"/>
<feBlend mode="normal" in2="shape" result="effect1_innerShadow_5_59"/>
</filter>
<filter id="filter6_i_5_59" x="75.3899" y="50.2102" width="59.3862" height="43.1032" filterUnits="userSpaceOnUse" color-interpolation-filters="sRGB">
<feFlood flood-opacity="0" result="BackgroundImageFix"/>
<feBlend mode="normal" in="SourceGraphic" in2="BackgroundImageFix" result="shape"/>
<feColorMatrix in="SourceAlpha" type="matrix" values="0 0 0 0 0 0 0 0 0 0 0 0 0 0 0 0 0 0 127 0" result="hardAlpha"/>
<feOffset dy="4"/>
<feGaussianBlur stdDeviation="2"/>
<feComposite in2="hardAlpha" operator="arithmetic" k2="-1" k3="1"/>
<feColorMatrix type="matrix" values="0 0 0 0 0 0 0 0 0 0 0 0 0 0 0 0 0 0 0.25 0"/>
<feBlend mode="normal" in2="shape" result="effect1_innerShadow_5_59"/>
</filter>
<filter id="filter7_i_5_59" x="132.254" y="50.2078" width="2.09357" height="6.06659" filterUnits="userSpaceOnUse" color-interpolation-filters="sRGB">
<feFlood flood-opacity="0" result="BackgroundImageFix"/>
<feBlend mode="normal" in="SourceGraphic" in2="BackgroundImageFix" result="shape"/>
<feColorMatrix in="SourceAlpha" type="matrix" values="0 0 0 0 0 0 0 0 0 0 0 0 0 0 0 0 0 0 127 0" result="hardAlpha"/>
<feOffset dy="4"/>
<feGaussianBlur stdDeviation="2"/>
<feComposite in2="hardAlpha" operator="arithmetic" k2="-1" k3="1"/>
<feColorMatrix type="matrix" values="0 0 0 0 0 0 0 0 0 0 0 0 0 0 0 0 0 0 0.25 0"/>
<feBlend mode="normal" in2="shape" result="effect1_innerShadow_5_59"/>
</filter>
<filter id="filter8_i_5_59" x="31.3606" y="32.7424" width="43.5788" height="43.7949" filterUnits="userSpaceOnUse" color-interpolation-filters="sRGB">
<feFlood flood-opacity="0" result="BackgroundImageFix"/>
<feBlend mode="normal" in="SourceGraphic" in2="BackgroundImageFix" result="shape"/>
<feColorMatrix in="SourceAlpha" type="matrix" values="0 0 0 0 0 0 0 0 0 0 0 0 0 0 0 0 0 0 127 0" result="hardAlpha"/>
<feOffset dy="4"/>
<feGaussianBlur stdDeviation="2"/>
<feComposite in2="hardAlpha" operator="arithmetic" k2="-1" k3="1"/>
<feColorMatrix type="matrix" values="0 0 0 0 0 0 0 0 0 0 0 0 0 0 0 0 0 0 0.25 0"/>
<feBlend mode="normal" in2="shape" result="effect1_innerShadow_5_59"/>
</filter>
<filter id="filter9_i_5_59" x="31.2804" y="32.7385" width="2.068" height="6.06799" filterUnits="userSpaceOnUse" color-interpolation-filters="sRGB">
<feFlood flood-opacity="0" result="BackgroundImageFix"/>
<feBlend mode="normal" in="SourceGraphic" in2="BackgroundImageFix" result="shape"/>
<feColorMatrix in="SourceAlpha" type="matrix" values="0 0 0 0 0 0 0 0 0 0 0 0 0 0 0 0 0 0 127 0" result="hardAlpha"/>
<feOffset dy="4"/>
<feGaussianBlur stdDeviation="2"/>
<feComposite in2="hardAlpha" operator="arithmetic" k2="-1" k3="1"/>
<feColorMatrix type="matrix" values="0 0 0 0 0 0 0 0 0 0 0 0 0 0 0 0 0 0 0.25 0"/>
<feBlend mode="normal" in2="shape" result="effect1_innerShadow_5_59"/>
</filter>
<filter id="filter10_i_5_59" x="45.2875" y="31.2935" width="30.9851" height="43.6124" filterUnits="userSpaceOnUse" color-interpolation-filters="sRGB">
<feFlood flood-opacity="0" result="BackgroundImageFix"/>
<feBlend mode="normal" in="SourceGraphic" in2="BackgroundImageFix" result="shape"/>
<feColorMatrix in="SourceAlpha" type="matrix" values="0 0 0 0 0 0 0 0 0 0 0 0 0 0 0 0 0 0 127 0" result="hardAlpha"/>
<feOffset dy="4"/>
<feGaussianBlur stdDeviation="2"/>
<feComposite in2="hardAlpha" operator="arithmetic" k2="-1" k3="1"/>
<feColorMatrix type="matrix" values="0 0 0 0 0 0 0 0 0 0 0 0 0 0 0 0 0 0 0.25 0"/>
<feBlend mode="normal" in2="shape" result="effect1_innerShadow_5_59"/>
</filter>
<filter id="filter11_i_5_59" x="45.2305" y="31.2571" width="2.04632" height="6.06668" filterUnits="userSpaceOnUse" color-interpolation-filters="sRGB">
<feFlood flood-opacity="0" result="BackgroundImageFix"/>
<feBlend mode="normal" in="SourceGraphic" in2="BackgroundImageFix" result="shape"/>
<feColorMatrix in="SourceAlpha" type="matrix" values="0 0 0 0 0 0 0 0 0 0 0 0 0 0 0 0 0 0 127 0" result="hardAlpha"/>
<feOffset dy="4"/>
<feGaussianBlur stdDeviation="2"/>
<feComposite in2="hardAlpha" operator="arithmetic" k2="-1" k3="1"/>
<feColorMatrix type="matrix" values="0 0 0 0 0 0 0 0 0 0 0 0 0 0 0 0 0 0 0.25 0"/>
<feBlend mode="normal" in2="shape" result="effect1_innerShadow_5_59"/>
</filter>
<filter id="filter12_i_5_59" x="22.9792" y="37.8886" width="52.3124" height="43.4685" filterUnits="userSpaceOnUse" color-interpolation-filters="sRGB">
<feFlood flood-opacity="0" result="BackgroundImageFix"/>
<feBlend mode="normal" in="SourceGraphic" in2="BackgroundImageFix" result="shape"/>
<feColorMatrix in="SourceAlpha" type="matrix" values="0 0 0 0 0 0 0 0 0 0 0 0 0 0 0 0 0 0 127 0" result="hardAlpha"/>
<feOffset dy="4"/>
<feGaussianBlur stdDeviation="2"/>
<feComposite in2="hardAlpha" operator="arithmetic" k2="-1" k3="1"/>
<feColorMatrix type="matrix" values="0 0 0 0 0 0 0 0 0 0 0 0 0 0 0 0 0 0 0.25 0"/>
<feBlend mode="normal" in2="shape" result="effect1_innerShadow_5_59"/>
</filter>
<filter id="filter13_i_5_59" x="22.8783" y="37.8925" width="2.08143" height="6.06735" filterUnits="userSpaceOnUse" color-interpolation-filters="sRGB">
<feFlood flood-opacity="0" result="BackgroundImageFix"/>
<feBlend mode="normal" in="SourceGraphic" in2="BackgroundImageFix" result="shape"/>
<feColorMatrix in="SourceAlpha" type="matrix" values="0 0 0 0 0 0 0 0 0 0 0 0 0 0 0 0 0 0 127 0" result="hardAlpha"/>
<feOffset dy="4"/>
<feGaussianBlur stdDeviation="2"/>
<feComposite in2="hardAlpha" operator="arithmetic" k2="-1" k3="1"/>
<feColorMatrix type="matrix" values="0 0 0 0 0 0 0 0 0 0 0 0 0 0 0 0 0 0 0.25 0"/>
<feBlend mode="normal" in2="shape" result="effect1_innerShadow_5_59"/>
</filter>
<filter id="filter14_i_5_59" x="15.2238" y="50.2102" width="59.3862" height="43.1032" filterUnits="userSpaceOnUse" color-interpolation-filters="sRGB">
<feFlood flood-opacity="0" result="BackgroundImageFix"/>
<feBlend mode="normal" in="SourceGraphic" in2="BackgroundImageFix" result="shape"/>
<feColorMatrix in="SourceAlpha" type="matrix" values="0 0 0 0 0 0 0 0 0 0 0 0 0 0 0 0 0 0 127 0" result="hardAlpha"/>
<feOffset dy="4"/>
<feGaussianBlur stdDeviation="2"/>
<feComposite in2="hardAlpha" operator="arithmetic" k2="-1" k3="1"/>
<feColorMatrix type="matrix" values="0 0 0 0 0 0 0 0 0 0 0 0 0 0 0 0 0 0 0.25 0"/>
<feBlend mode="normal" in2="shape" result="effect1_innerShadow_5_59"/>
</filter>
<filter id="filter15_i_5_59" x="15.6524" y="50.2078" width="2.09358" height="6.06659" filterUnits="userSpaceOnUse" color-interpolation-filters="sRGB">
<feFlood flood-opacity="0" result="BackgroundImageFix"/>
<feBlend mode="normal" in="SourceGraphic" in2="BackgroundImageFix" result="shape"/>
<feColorMatrix in="SourceAlpha" type="matrix" values="0 0 0 0 0 0 0 0 0 0 0 0 0 0 0 0 0 0 127 0" result="hardAlpha"/>
<feOffset dy="4"/>
<feGaussianBlur stdDeviation="2"/>
<feComposite in2="hardAlpha" operator="arithmetic" k2="-1" k3="1"/>
<feColorMatrix type="matrix" values="0 0 0 0 0 0 0 0 0 0 0 0 0 0 0 0 0 0 0.25 0"/>
<feBlend mode="normal" in2="shape" result="effect1_innerShadow_5_59"/>
</filter>
<clipPath id="clip0_5_59">
<rect width="150" height="150" fill="white"/>
</clipPath>
</defs>
</svg>
