<svg width="150" height="150" viewBox="0 0 150 150" fill="none" xmlns="http://www.w3.org/2000/svg">
<path d="M49.1303 33.401V33.401C54.9509 21.4865 63.7388 11.2699 74.6491 3.73337L75.1303 3.40095" stroke="#AF52DE" stroke-width="3" stroke-linecap="round"/>
<path d="M101.206 33.401V33.401C95.3855 21.4865 86.5976 11.2699 75.6874 3.73337L75.2061 3.40095" stroke="#AF52DE" stroke-width="3" stroke-linecap="round"/>
<path d="M75 135L75.1657 90" stroke="#34C759" stroke-width="5" stroke-linecap="round"/>
<path d="M75.2061 90L56.7436 79.5741C41.9676 71.23 33.0491 55.3694 33.5962 38.4089V38.4089C33.6694 36.1395 33.5729 33.8677 33.3076 31.6126L32.7061 26.5" stroke="#34C759" stroke-width="3" stroke-linecap="round"/>
<path d="M117.412 25.9765L98.9498 36.4024C84.1737 44.7465 75.2552 60.6071 75.8023 77.5676V77.5676C75.8755 79.837 75.7791 82.1088 75.5138 84.3639L74.9123 89.4765" stroke="#34C759" stroke-width="3" stroke-linecap="round"/>
<path d="M33.2109 25.9765L51.6734 36.4024C66.4495 44.7465 75.368 60.6071 74.8209 77.5676V77.5676C74.7477 79.837 74.8441 82.1088 75.1094 84.3639L75.7109 89.4765" stroke="#34C759" stroke-width="3" stroke-linecap="round"/>
<path d="M75.4171 90L93.8796 79.5741C108.656 71.23 117.574 55.3694 117.027 38.4089V38.4089C116.954 36.1395 117.05 33.8677 117.316 31.6126L117.917 26.5" stroke="#34C759" stroke-width="3" stroke-linecap="round"/>
</svg>
