<svg width="150" height="150" viewBox="0 0 150 150" fill="none" xmlns="http://www.w3.org/2000/svg">
<path d="M25 53.5V53.5C32.6288 52.5464 40.2995 54.9187 46.0579 60.0128L50 63.5V63.5C64.8543 74.4922 85.1457 74.4921 100 63.5V63.5L106.975 58.1524C112.104 54.2206 118.609 52.5414 125 53.5V53.5" stroke="#009951" stroke-width="4" stroke-linecap="round"/>
<path d="M25 63V63C32.6288 62.0464 40.2995 64.4187 46.0579 69.5128L50 73V73C64.8543 83.9922 85.1457 83.9921 100 73V73L106.975 67.6524C112.104 63.7206 118.609 62.0414 125 63V63" stroke="#009951" stroke-width="4" stroke-linecap="round"/>
<path d="M25 73V73C32.6288 72.0464 40.2995 74.4187 46.0579 79.5128L50 83V83C64.8543 93.9922 85.1457 93.9921 100 83V83L106.975 77.6524C112.104 73.7206 118.609 72.0414 125 73V73" stroke="#009951" stroke-width="4" stroke-linecap="round"/>
<path d="M25 82.5V82.5C32.6288 81.5464 40.2995 83.9187 46.0579 89.0128L50 92.5V92.5C64.8543 103.492 85.1457 103.492 100 92.5V92.5L106.975 87.1524C112.104 83.2206 118.609 81.5414 125 82.5V82.5" stroke="#009951" stroke-width="4" stroke-linecap="round"/>
</svg>
